<?xml version="1.0" standalone="no"?>
<!DOCTYPE svg PUBLIC "-//W3C//DTD SVG 20010904//EN"
 "http://www.w3.org/TR/2001/REC-SVG-20010904/DTD/svg10.dtd">
<svg version="1.0" xmlns="http://www.w3.org/2000/svg"
 width="618.000000pt" height="191.000000pt" viewBox="0 0 618.000000 191.000000"
 preserveAspectRatio="xMidYMid meet">

<g transform="translate(0.000000,191.000000) scale(0.100000,-0.100000)"
fill="#000000" stroke="none">
<path d="M0 955 l0 -955 3090 0 3090 0 0 955 0 955 -3090 0 -3090 0 0 -955z
m843 649 c20 -4 37 -11 37 -15 0 -13 -48 -11 -56 2 -5 8 -30 9 -80 5 -46 -4
-75 -3 -79 4 -7 11 115 14 178 4z m-193 -12 c0 -6 -26 -13 -57 -17 -32 -4 -61
-12 -65 -18 -5 -9 -10 -9 -20 1 -9 9 -9 12 5 12 9 0 17 4 17 9 0 10 20 15 83
19 20 2 37 -1 37 -6z m295 -12 c11 -5 29 -11 39 -14 10 -4 17 -9 14 -12 -9 -8
-97 19 -102 32 -5 13 6 12 49 -6z m-455 -30 c0 -5 -11 -12 -25 -16 -14 -3 -25
-11 -25 -17 0 -6 -3 -7 -6 -4 -4 4 -19 -2 -34 -13 -16 -11 -32 -20 -37 -20 -4
0 -14 -9 -21 -20 -7 -11 -18 -20 -24 -20 -17 0 -98 -81 -98 -97 0 -8 -7 -16
-15 -20 -9 -3 -22 -21 -30 -39 -8 -19 -18 -34 -24 -34 -5 0 -13 -15 -16 -32
-4 -18 -12 -42 -18 -53 -6 -11 -12 -22 -13 -25 0 -3 -5 -14 -10 -25 -14 -30
-12 -339 3 -356 6 -8 16 -34 23 -59 7 -25 16 -47 20 -50 12 -7 24 -60 14 -60
-13 0 -50 70 -59 110 -4 19 -12 41 -19 49 -7 9 -11 66 -10 165 1 162 3 186 14
201 4 6 11 26 15 45 8 37 45 113 58 118 4 2 7 10 7 17 0 7 7 16 16 19 8 3 13
10 9 15 -3 6 6 18 20 27 14 9 25 22 25 29 0 25 188 164 213 157 4 -1 7 3 7 8
0 6 9 10 20 10 11 0 20 -4 20 -10z m248 -2 c-14 -12 -208 -341 -208 -354 0
-12 -38 -53 -43 -47 -8 7 12 44 137 255 27 46 57 100 68 121 13 26 25 37 40
37 19 0 20 -2 6 -12z m302 -8 c0 -5 -5 -10 -11 -10 -5 0 -7 5 -4 10 3 6 8 10
11 10 2 0 4 -4 4 -10z m-275 -11 c11 -17 -1 -21 -15 -4 -8 9 -8 15 -2 15 6 0
14 -5 17 -11z m366 -45 c12 -15 12 -16 -1 -11 -8 4 -23 10 -32 13 -10 4 -18
13 -18 21 0 17 29 4 51 -23z m-318 -40 c6 -16 13 -31 17 -34 13 -9 49 -78 43
-83 -5 -6 -44 56 -65 106 -7 15 -16 27 -20 27 -4 0 -8 5 -8 11 0 21 24 2 33
-27z m404 -29 c31 -31 53 -59 49 -62 -7 -7 -92 71 -107 100 -17 31 2 18 58
-38z m-453 -104 c-2 -3 -10 1 -16 7 -17 17 -25 15 -31 -8 -5 -19 -27 -29 -27
-12 1 12 24 39 40 44 14 4 43 -22 34 -31z m540 -3 c19 -37 19 -38 6 -38 -5 0
-10 7 -10 15 0 9 -7 18 -15 21 -8 4 -15 12 -15 20 0 24 18 15 34 -18z m-386
-39 c11 -17 11 -24 1 -33 -9 -8 -10 -8 -5 2 4 6 3 12 -2 12 -5 0 -12 9 -15 20
-7 26 5 26 21 -1z m-238 -19 c-6 -12 -14 -19 -17 -17 -2 3 1 15 7 27 6 12 14
19 17 17 2 -3 -1 -15 -7 -27z m140 -22 c0 -18 -17 -7 -29 19 -13 28 -13 28 8
9 12 -11 21 -23 21 -28z m520 22 c0 -5 -4 -10 -10 -10 -5 0 -10 5 -10 10 0 6
5 10 10 10 6 0 10 -4 10 -10z m-701 -66 c-14 -39 -19 -45 -30 -39 -5 4 -3 13
6 21 8 9 15 22 15 30 0 8 4 14 10 14 6 0 6 -9 -1 -26z m334 -11 c6 -16 15 -30
19 -33 11 -9 40 -83 29 -76 -5 3 -19 26 -31 51 -12 25 -27 45 -33 45 -5 0 -7
3 -4 7 4 3 2 12 -4 20 -9 9 -8 13 0 13 6 0 17 -12 24 -27z m395 20 c-1 -5 5
-21 12 -38 7 -16 13 -37 14 -45 1 -8 6 -23 10 -32 5 -10 5 -26 0 -35 -6 -15
-8 -14 -11 7 -2 14 -10 39 -18 55 -20 46 -28 95 -16 95 6 0 10 -3 9 -7z m-510
-33 c17 -22 19 -30 8 -30 -7 0 -16 8 -20 18 -3 9 -9 23 -12 30 -10 21 1 13 24
-18z m-79 -67 c9 -6 12 -15 8 -19 -8 -9 -43 36 -39 50 2 5 -4 6 -13 3 -18 -8
-20 4 -3 21 10 10 15 7 22 -15 5 -15 16 -33 25 -40z m-289 27 c0 -5 -4 -10 -8
-10 -5 0 -15 -12 -22 -27 -8 -18 -14 -23 -17 -15 -7 19 17 62 34 62 7 0 13 -4
13 -10z m98 -30 c-11 -34 -24 -45 -33 -30 -3 5 -1 10 4 10 6 0 10 3 9 8 -2 12
14 42 23 42 4 0 3 -14 -3 -30z m316 -20 c-6 -5 -24 21 -24 34 0 6 6 1 14 -10
8 -10 12 -21 10 -24z m-213 -7 c-12 -20 -14 -14 -5 12 4 9 9 14 11 11 3 -2 0
-13 -6 -23z m67 -51 c-7 -18 -16 -32 -20 -32 -4 0 -14 -16 -22 -35 -14 -32
-36 -48 -36 -25 0 6 5 10 11 10 5 0 7 5 4 10 -3 6 -1 10 4 10 6 0 11 6 11 14
0 7 7 19 15 26 9 7 13 15 10 18 -3 3 2 14 12 24 22 24 25 18 11 -20z m302 8
c7 -17 10 -33 6 -37 -3 -3 -6 1 -6 10 0 10 -4 17 -9 17 -5 0 -11 9 -14 20 -8
31 9 23 23 -10z m-630 15 c0 -9 -31 -66 -59 -110 -14 -22 -26 -42 -26 -45 -1
-11 -29 -55 -42 -68 -7 -8 -11 -18 -8 -23 4 -5 2 -9 -3 -9 -5 0 -22 -27 -38
-59 -16 -33 -35 -60 -41 -60 -16 -1 -1 41 27 77 11 13 20 31 20 38 0 7 6 17
13 21 7 4 19 24 27 43 7 19 18 40 24 45 6 6 20 28 31 49 46 91 56 106 65 106
6 0 10 -2 10 -5z m106 -39 c-8 -20 -20 -36 -25 -36 -15 0 -14 4 10 45 27 45
35 39 15 -9z m412 9 c6 -14 8 -25 3 -25 -4 0 -13 11 -19 25 -6 14 -8 25 -3 25
4 0 13 -11 19 -25z m468 -104 c-2 -54 -9 -107 -15 -117 -10 -16 -11 -9 -7 36
3 30 6 86 6 123 0 42 4 66 10 62 6 -4 8 -46 6 -104z m-775 76 c-10 -9 -11 -8
-5 6 3 10 9 15 12 12 3 -3 0 -11 -7 -18z m470 -45 c6 -16 5 -20 -7 -15 -8 3
-12 8 -10 11 3 3 0 12 -7 20 -10 12 -9 14 2 11 8 -3 18 -15 22 -27z m-618 -10
c-3 -12 -12 -22 -19 -22 -12 0 -11 5 2 25 19 30 26 28 17 -3z m505 -4 c15 -42
8 -48 -12 -9 -18 34 -19 41 -8 41 4 0 13 -14 20 -32z m-332 -62 c-8 -20 -20
-36 -25 -36 -15 0 -14 16 2 32 7 7 16 22 20 32 4 10 10 16 13 14 3 -3 -2 -22
-10 -42z m471 32 c6 -7 13 -21 16 -30 9 -26 -16 -12 -30 17 -12 26 -3 34 14
13z m-689 -46 c-14 -37 -43 -55 -32 -19 6 22 35 60 40 54 2 -2 -2 -18 -8 -35z
m599 -19 c-3 -2 -11 7 -20 21 -9 13 -13 26 -10 30 3 3 12 -6 20 -21 7 -14 12
-28 10 -30z m-432 -57 c-10 -20 -21 -36 -26 -36 -14 0 -11 9 12 47 27 43 36
36 14 -11z m579 22 c9 -12 16 -29 16 -38 -1 -11 -4 -10 -12 5 -7 11 -10 21 -7
22 2 1 -5 9 -16 17 -11 9 -15 16 -8 16 6 0 19 -10 27 -22z m-798 -35 c-9 -15
-30 -50 -46 -78 -17 -27 -33 -57 -37 -65 -11 -24 -25 -30 -81 -30 -50 0 -53
-1 -47 -21 5 -15 3 -20 -6 -17 -8 3 -15 14 -17 26 -3 20 1 22 55 22 53 0 61 3
80 28 11 15 23 37 27 50 4 12 11 22 15 22 5 0 14 15 21 33 14 34 41 70 47 63
3 -2 -3 -17 -11 -33z m522 30 c-21 -2 -57 -2 -80 0 -24 2 -7 4 37 4 44 0 63
-2 43 -4z m182 -46 c0 -16 -18 3 -23 25 -6 22 -5 22 8 4 8 -11 15 -24 15 -29z
m-270 8 c0 -14 21 -25 51 -25 19 0 41 -37 32 -52 -2 -5 -83 -8 -179 -8 -145 0
-176 3 -180 15 -3 8 1 22 10 30 9 9 16 12 16 6 0 -5 -4 -13 -10 -16 -33 -20 3
-25 157 -23 151 3 168 5 171 21 3 13 -3 17 -26 17 -30 0 -44 11 -55 43 -4 11
-3 16 3 12 6 -3 10 -12 10 -20z m148 8 c5 -10 12 -31 15 -48 l6 -30 -12 28
c-6 15 -15 27 -20 27 -4 0 -5 5 -2 10 3 6 1 10 -4 10 -6 0 -11 5 -11 10 0 16
19 11 28 -7z m406 -33 c-8 -16 -17 -38 -19 -49 -7 -39 -35 -80 -50 -75 -12 5
-11 9 5 26 10 11 23 32 28 47 6 14 14 35 18 46 7 20 10 29 13 41 0 3 5 3 10 0
5 -4 3 -19 -5 -36z m-245 -46 c12 -20 16 -34 10 -32 -10 3 -43 68 -35 68 2 0
14 -16 25 -36z m109 5 c-3 -8 -7 -3 -11 10 -4 17 -3 21 5 13 5 -5 8 -16 6 -23z
m-213 -44 c6 -30 6 -30 -10 4 -17 38 -19 49 -6 36 5 -6 12 -23 16 -40z m-835
-2 c0 -5 -4 -15 -10 -23 -11 -18 -25 -7 -17 15 6 15 27 21 27 8z m1049 -45
l66 -2 -65 -3 c-53 -3 -67 -1 -77 13 -7 10 -13 23 -12 28 0 6 5 1 11 -11 10
-20 19 -23 77 -25z m-191 -3 c3 -3 -142 -5 -321 -5 -180 0 -327 3 -327 8 0 8
640 6 648 -3z m228 -60 c-21 -16 -32 -13 -21 4 3 6 14 11 23 11 15 -1 15 -2
-2 -15z m-1018 -63 c37 -37 75 -71 85 -75 17 -6 24 -27 9 -27 -4 0 -22 13 -40
29 -17 17 -32 28 -32 25 0 -3 -22 18 -50 48 -46 49 -58 68 -44 68 3 0 36 -31
72 -68z m949 -17 c-26 -25 -52 -45 -57 -45 -5 0 -13 -6 -17 -14 -9 -15 -74
-51 -85 -48 -5 1 -8 -2 -8 -7 0 -5 -9 -11 -21 -14 -16 -4 -18 -3 -9 8 7 8 21
17 33 21 29 9 164 112 171 130 3 8 13 14 22 14 12 0 3 -14 -29 -45z m-752
-121 c25 -15 33 -24 22 -24 -18 0 -107 47 -107 57 0 8 44 -9 85 -33z m523 -21
c-10 -2 -18 -9 -18 -15 0 -5 -6 -8 -14 -5 -7 3 -18 1 -23 -4 -6 -6 -44 -12
-84 -13 -41 -2 -56 -2 -34 0 22 3 49 9 60 14 29 13 87 28 110 28 16 0 17 -1 3
-5z m-444 -19 c6 -15 4 -15 -11 -3 -10 7 -20 15 -22 16 -2 2 3 3 11 3 9 0 19
-7 22 -16z m45 -8 c10 -12 8 -13 -8 -9 -12 3 -21 9 -21 14 0 14 16 11 29 -5z
m99 -13 c-16 -2 -40 -2 -55 0 -16 2 -3 4 27 4 30 0 43 -2 28 -4z"/>
</g>
</svg>
